<svg xmlns="http://www.w3.org/2000/svg" width="26" height="26" viewBox="0 0 26 26" fill="none">
    <path d="M11.861 18.2075C11.4401 18.2075 11.098 18.5487 11.098 18.9683V20.7653C11.098 20.8 11.1455 21.3637 10.6552 21.3637H7.74035C7.3195 21.3637 6.97734 21.7049 6.97734 22.1245V25.1603C6.97734 25.5799 7.3195 25.9211 7.74035 25.9211H10.7851C11.2059 25.9211 11.5481 25.5799 11.5481 25.1603V22.8379C11.5481 22.7065 11.5883 21.933 12.3623 21.933H14.0695C14.4903 21.933 14.8325 21.5918 14.8325 21.1722V18.9701C14.8325 18.5505 14.4903 18.2094 14.0695 18.2094H11.861V18.2075ZM17.2405 15.8577L15.6779 17.4157C15.3796 17.7131 15.3796 18.1948 15.6779 18.4921L16.9495 19.7601H16.9514C16.977 19.7875 17.4088 20.1523 17.063 20.4972L15.0008 22.5533C14.7026 22.8506 14.7026 23.3323 15.0008 23.6296L17.1545 25.777C17.4527 26.0743 17.9358 26.0743 18.234 25.777L20.3877 23.6296C20.6859 23.3323 20.6859 22.8506 20.3877 22.5533L18.7409 20.9113C18.6476 20.8182 18.1279 20.2436 18.675 19.6981L19.8826 18.494C20.1809 18.1966 20.1809 17.7149 19.8826 17.4176L18.32 15.8595C18.1718 15.7117 17.976 15.6369 17.7803 15.6369C17.5845 15.6369 17.3905 15.7117 17.2405 15.8595M2.37732 15.0422L0.223688 17.1895C-0.0745628 17.4869 -0.0745628 17.9685 0.223688 18.2659L2.37732 20.4132C2.67557 20.7106 3.15863 20.7106 3.45688 20.4132L5.10366 18.7713C5.19698 18.6782 5.77336 18.1601 6.32045 18.7056L7.5281 19.9097C7.82635 20.2071 8.30941 20.2071 8.60766 19.9097L10.1703 18.3517C10.4685 18.0543 10.4685 17.5726 10.1703 17.2753L8.60766 15.7172C8.30941 15.4198 7.82635 15.4198 7.5281 15.7172L6.25641 16.9852H6.25458C6.22897 17.0125 5.86301 17.4449 5.51719 17.0983L3.45688 15.0422C3.30867 14.8944 3.11288 14.8196 2.9171 14.8196C2.72131 14.8196 2.52736 14.8944 2.37732 15.0422ZM19.0245 11.1818C18.6036 11.1818 18.2615 11.5229 18.2615 11.9425V14.1464C18.2615 14.566 18.6036 14.9072 19.0245 14.9072H20.8268C20.8268 14.9072 20.836 14.9072 20.8451 14.9072C20.9512 14.9035 21.4251 14.9017 21.4251 15.3487V18.255C21.4251 18.6746 21.7673 19.0157 22.1881 19.0157H25.2329C25.6537 19.0157 25.9959 18.6746 25.9959 18.255V15.2192C25.9959 14.7995 25.6537 14.4584 25.2329 14.4584H22.9036C22.7718 14.4584 21.996 14.4182 21.996 13.6465V11.9444C21.996 11.5247 21.6539 11.1836 21.233 11.1836H19.0245V11.1818ZM0.765298 6.98381C0.344453 6.98381 0.00228719 7.32497 0.00228719 7.74641V10.7822C0.00228719 11.2018 0.344453 11.543 0.765298 11.543H3.09458C3.22633 11.543 4.00215 11.5831 4.00215 12.3548V14.057C4.00215 14.4766 4.34431 14.8178 4.76516 14.8178H6.97368C7.39452 14.8178 7.73669 14.4766 7.73669 14.057V11.8531C7.73669 11.4335 7.39452 11.0924 6.97368 11.0924H5.17136C5.17136 11.0924 5.16222 11.0924 5.15307 11.0924C5.04694 11.096 4.5712 11.0978 4.5712 10.6509V7.74458C4.5712 7.32497 4.22904 6.98381 3.80819 6.98381H0.765298ZM22.5431 5.58632L20.8963 7.22828C20.803 7.32132 20.2266 7.83945 19.6795 7.29396L18.4719 6.08985C18.1737 5.79247 17.6906 5.79247 17.3923 6.08985L15.8297 7.64789C15.5315 7.94527 15.5315 8.42691 15.8297 8.72429L17.3923 10.2823C17.6906 10.5797 18.1737 10.5797 18.4719 10.2823L19.7436 9.01437H19.7454C19.771 8.987 20.137 8.55462 20.4828 8.90125L22.5431 10.9574C22.8414 11.2547 23.3244 11.2547 23.6227 10.9574L25.7763 8.81003C26.0746 8.51266 26.0746 8.03102 25.7763 7.73364L23.6227 5.58632C23.4745 5.43854 23.2787 5.36374 23.0829 5.36374C22.8871 5.36374 22.6932 5.43854 22.5431 5.58632ZM15.2149 0C14.7941 0 14.4519 0.341163 14.4519 0.760775V3.08324C14.4519 3.2146 14.4117 3.98814 13.6377 3.98814H11.9305C11.5097 3.98814 11.1675 4.3293 11.1675 4.74892V6.95279C11.1675 7.37241 11.5097 7.71357 11.9305 7.71357H14.1409C14.5617 7.71357 14.9039 7.37241 14.9039 6.95279V5.15758C14.9039 5.1211 14.8563 4.55918 15.3467 4.55918H18.2615C18.6823 4.55918 19.0245 4.21802 19.0245 3.7984V0.760775C19.0245 0.341163 18.6823 0 18.2615 0H15.2168H15.2149ZM7.76597 0.222577L5.61417 2.3699C5.31592 2.66727 5.31592 3.14892 5.61417 3.44629L7.26095 5.08826C7.35427 5.1813 7.87392 5.75599 7.32682 6.30148L6.11918 7.50559C5.82093 7.80297 5.82093 8.28461 6.11918 8.58198L7.6818 10.14C7.98005 10.4374 8.46311 10.4374 8.76136 10.14L10.324 8.58198C10.6222 8.28461 10.6222 7.80297 10.324 7.50559L9.05229 6.23763H9.05046C9.02484 6.21026 8.59302 5.84538 8.93884 5.50057L10.9992 3.44447C11.2974 3.14709 11.2974 2.66545 10.9992 2.36807L8.84553 0.222577C8.69732 0.0748005 8.50153 0 8.30575 0C8.10996 0 7.91601 0.0748005 7.76597 0.222577Z" fill="url(#paint0_linear_2060_47)"/>
    <linearGradient id="paint0_linear_2060_47" x1="25.9826" y1="1.13305e-06" x2="0.0767614" y2="26.1649" gradientUnits="userSpaceOnUse">
        <stop stop-color="#00ADEE"/>
        <stop offset="1" stop-color="#E2FF14"/>
    </linearGradient>
</svg>
