<svg xmlns="http://www.w3.org/2000/svg" width="10" height="10" viewBox="0 0 10 10" fill="none">
    <path fill-rule="evenodd" clip-rule="evenodd" d="M0.209198 4.81681C0.0751704 4.6996 -0.00012207 4.54065 -0.00012207 4.37492C-0.00012207 4.2092 0.0751704 4.05025 0.209198 3.93304L4.49874 0.182994C4.63281 0.0658229 4.81462 0 5.00419 0C5.19377 0 5.37558 0.0658229 5.50964 0.182994L9.79919 3.93304C9.92942 4.05092 10.0015 4.2088 9.99985 4.37268C9.99822 4.53655 9.92303 4.69331 9.79048 4.80919C9.65793 4.92507 9.47862 4.99081 9.29117 4.99223C9.10371 4.99365 8.92312 4.93066 8.78829 4.81681L5.71912 2.13365V9.37499C5.71912 9.54075 5.6438 9.69973 5.50972 9.81694C5.37565 9.93415 5.1938 10 5.00419 10C4.81458 10 4.63274 9.93415 4.49867 9.81694C4.36459 9.69973 4.28927 9.54075 4.28927 9.37499V2.13365L1.2201 4.81681C1.08603 4.93398 0.904222 4.9998 0.714649 4.9998C0.525077 4.9998 0.343266 4.93398 0.209198 4.81681Z" fill="#000"/>
</svg>