<svg xmlns="http://www.w3.org/2000/svg" width="10" height="10" viewBox="0 0 10 10" fill="none">
    <path fill-rule="evenodd" clip-rule="evenodd" d="M9.79044 5.18319C9.92446 5.3004 9.99976 5.45935 9.99976 5.62508C9.99976 5.7908 9.92446 5.94975 9.79044 6.06696L5.50089 9.81701C5.36682 9.93418 5.18501 10 4.99544 10C4.80587 10 4.62406 9.93418 4.48999 9.81701L0.200444 6.06695C0.0702146 5.94908 -0.00184595 5.7912 -0.000217055 5.62732C0.00141183 5.46345 0.0766005 5.30669 0.209154 5.19081C0.341706 5.07493 0.521018 5.00919 0.708469 5.00777C0.895919 5.00635 1.07651 5.06934 1.21135 5.18319L4.28052 7.86635L4.28052 0.625008C4.28052 0.459245 4.35584 0.300271 4.48991 0.18306C4.62399 0.0658479 4.80583 -4.54067e-07 4.99544 -4.37491e-07C5.18505 -4.20915e-07 5.36689 0.0658479 5.50097 0.18306C5.63504 0.300272 5.71036 0.459245 5.71036 0.625008L5.71036 7.86635L8.77953 5.18319C8.9136 5.06602 9.09541 5.0002 9.28498 5.0002C9.47456 5.0002 9.65637 5.06602 9.79044 5.18319Z" fill="#000"/>
</svg>