<svg xmlns="http://www.w3.org/2000/svg" width="10" height="11" viewBox="0 0 10 11" fill="none">
    <path fill-rule="evenodd" clip-rule="evenodd" d="M0.975477 5.32415C0.862994 5.21163 0.799805 5.05904 0.799805 4.89995C0.799805 4.74085 0.862994 4.58826 0.975477 4.47575L4.57548 0.875745C4.68799 0.763262 4.84058 0.700073 4.99968 0.700073C5.15878 0.700073 5.31136 0.763262 5.42388 0.875745L9.02388 4.47575C9.13317 4.58891 9.19365 4.74047 9.19228 4.89779C9.19091 5.0551 9.12781 5.20559 9.01657 5.31684C8.90532 5.42808 8.75484 5.49118 8.59752 5.49255C8.4402 5.49392 8.28864 5.43344 8.17548 5.32415L5.59968 2.74835V9.69995C5.59968 9.85908 5.53646 10.0117 5.42394 10.1242C5.31142 10.2367 5.15881 10.2999 4.99968 10.2999C4.84055 10.2999 4.68793 10.2367 4.57541 10.1242C4.46289 10.0117 4.39968 9.85908 4.39968 9.69995V2.74835L1.82388 5.32415C1.71136 5.43663 1.55878 5.49982 1.39968 5.49982C1.24058 5.49982 1.08799 5.43663 0.975477 5.32415Z"/>
</svg>