<svg xmlns="http://www.w3.org/2000/svg" width="22" height="22" viewBox="0 0 22 22" fill="none">
    <path fill-rule="evenodd" clip-rule="evenodd" d="M6.59922 6.6002V5.5002C6.59922 4.62498 6.9469 3.78561 7.56577 3.16674C8.18464 2.54787 9.024 2.2002 9.89922 2.2002H12.0992C12.9744 2.2002 13.8138 2.54787 14.4327 3.16674C15.0515 3.78561 15.3992 4.62498 15.3992 5.5002V6.6002H17.5992C18.1827 6.6002 18.7423 6.83198 19.1549 7.24456C19.5674 7.65714 19.7992 8.21672 19.7992 8.8002V12.7272C16.9828 13.7708 14.0028 14.3035 10.9992 14.3002C7.99567 14.3035 5.01562 13.7708 2.19922 12.7272V8.8002C2.19922 8.21672 2.431 7.65714 2.84358 7.24456C3.25616 6.83198 3.81574 6.6002 4.39922 6.6002H6.59922ZM8.79922 5.5002C8.79922 5.20846 8.91511 4.92867 9.1214 4.72238C9.32769 4.51609 9.60748 4.4002 9.89922 4.4002H12.0992C12.391 4.4002 12.6707 4.51609 12.877 4.72238C13.0833 4.92867 13.1992 5.20846 13.1992 5.5002V6.6002H8.79922V5.5002ZM9.89922 11.0002C9.89922 10.7085 10.0151 10.4287 10.2214 10.2224C10.4277 10.0161 10.7075 9.9002 10.9992 9.9002H11.0102C11.302 9.9002 11.5817 10.0161 11.788 10.2224C11.9943 10.4287 12.1102 10.7085 12.1102 11.0002C12.1102 11.2919 11.9943 11.5717 11.788 11.778C11.5817 11.9843 11.302 12.1002 11.0102 12.1002H10.9992C10.7075 12.1002 10.4277 11.9843 10.2214 11.778C10.0151 11.5717 9.89922 11.2919 9.89922 11.0002Z" fill="#050505"/>
    <path d="M2.19922 15.0615V17.6003C2.19922 18.1838 2.431 18.7434 2.84358 19.156C3.25616 19.5685 3.81574 19.8003 4.39922 19.8003H17.5992C18.1827 19.8003 18.7423 19.5685 19.1549 19.156C19.5674 18.7434 19.7992 18.1838 19.7992 17.6003V15.0615C16.9638 16.0172 13.9913 16.5032 10.9992 16.5003C7.92362 16.5003 4.96352 15.9943 2.19922 15.0615Z" fill="#050505"/>
</svg>