<svg xmlns="http://www.w3.org/2000/svg" width="22" height="22" viewBox="0 0 22 22" fill="none">
    <path fill-rule="evenodd" clip-rule="evenodd" d="M10.9992 19.7992C13.3331 19.7992 15.5714 18.8721 17.2218 17.2218C18.8721 15.5714 19.7992 13.3331 19.7992 10.9992C19.7992 8.66531 18.8721 6.427 17.2218 4.77668C15.5714 3.12636 13.3331 2.19922 10.9992 2.19922C8.66531 2.19922 6.427 3.12636 4.77668 4.77668C3.12636 6.427 2.19922 8.66531 2.19922 10.9992C2.19922 13.3331 3.12636 15.5714 4.77668 17.2218C6.427 18.8721 8.66531 19.7992 10.9992 19.7992ZM12.0992 6.59922C12.0992 6.30748 11.9833 6.02769 11.777 5.8214C11.5707 5.61511 11.291 5.49922 10.9992 5.49922C10.7075 5.49922 10.4277 5.61511 10.2214 5.8214C10.0151 6.02769 9.89922 6.30748 9.89922 6.59922V10.9992C9.89928 11.2909 10.0152 11.5707 10.2215 11.7769L13.3323 14.8888C13.4345 14.991 13.5559 15.0721 13.6894 15.1274C13.8229 15.1827 13.966 15.2112 14.1106 15.2112C14.2551 15.2112 14.3982 15.1827 14.5318 15.1274C14.6653 15.0721 14.7866 14.991 14.8888 14.8888C14.991 14.7866 15.0721 14.6653 15.1274 14.5318C15.1827 14.3982 15.2112 14.2551 15.2112 14.1106C15.2112 13.966 15.1827 13.8229 15.1274 13.6894C15.0721 13.5559 14.991 13.4345 14.8888 13.3323L12.0992 10.5438V6.59922Z" fill="#050505" style="&#10;"/>
</svg>