<svg xmlns="http://www.w3.org/2000/svg" width="22" height="22" viewBox="0 0 22 22" fill="none">
    <path d="M3.30078 13.1992V16.4992C3.30078 18.3219 6.74818 19.7992 11.0008 19.7992C15.2534 19.7992 18.7008 18.3219 18.7008 16.4992V13.1992C18.7008 15.0219 15.2534 16.4992 11.0008 16.4992C6.74818 16.4992 3.30078 15.0219 3.30078 13.1992Z" fill="#050505"/>
    <path d="M3.30078 7.69922V10.9992C3.30078 12.8219 6.74818 14.2992 11.0008 14.2992C15.2534 14.2992 18.7008 12.8219 18.7008 10.9992V7.69922C18.7008 9.52192 15.2534 10.9992 11.0008 10.9992C6.74818 10.9992 3.30078 9.52192 3.30078 7.69922Z" fill="#050505"/>
    <path d="M18.7008 5.49922C18.7008 7.32192 15.2534 8.79922 11.0008 8.79922C6.74818 8.79922 3.30078 7.32192 3.30078 5.49922C3.30078 3.67652 6.74818 2.19922 11.0008 2.19922C15.2534 2.19922 18.7008 3.67652 18.7008 5.49922Z" fill="#050505"/>
</svg>