<svg xmlns="http://www.w3.org/2000/svg" width="22" height="22" viewBox="0 0 22 22" fill="none">
    <path fill-rule="evenodd" clip-rule="evenodd" d="M3.29922 3.30078C3.00748 3.30078 2.72769 3.41667 2.5214 3.62296C2.31511 3.82925 2.19922 4.10904 2.19922 4.40078V17.6008C2.19922 17.8925 2.31511 18.1723 2.5214 18.3786C2.72769 18.5849 3.00748 18.7008 3.29922 18.7008C3.59096 18.7008 3.87075 18.5849 4.07704 18.3786C4.28333 18.1723 4.39922 17.8925 4.39922 17.6008V4.40078C4.39922 4.10904 4.28333 3.82925 4.07704 3.62296C3.87075 3.41667 3.59096 3.30078 3.29922 3.30078ZM14.6215 13.5231C14.4211 13.7305 14.3103 14.0084 14.3128 14.2968C14.3153 14.5852 14.431 14.8611 14.6349 15.0651C14.8389 15.269 15.1148 15.3847 15.4032 15.3872C15.6916 15.3897 15.9695 15.2789 16.1769 15.0785L19.4769 11.7785C19.6831 11.5722 19.799 11.2925 19.799 11.0008C19.799 10.7091 19.6831 10.4294 19.4769 10.2231L16.1769 6.92308C16.0754 6.81802 15.9541 6.73422 15.8199 6.67657C15.6857 6.61892 15.5413 6.58858 15.3953 6.58731C15.2492 6.58604 15.1044 6.61387 14.9692 6.66918C14.834 6.72449 14.7112 6.80616 14.6079 6.90945C14.5046 7.01273 14.4229 7.13555 14.3676 7.27073C14.3123 7.40592 14.2845 7.55077 14.2857 7.69682C14.287 7.84288 14.3174 7.98722 14.375 8.12143C14.4327 8.25563 14.5165 8.37701 14.6215 8.47848L16.0438 9.90078H7.69922C7.40748 9.90078 7.12769 10.0167 6.9214 10.223C6.71511 10.4293 6.59922 10.709 6.59922 11.0008C6.59922 11.2925 6.71511 11.5723 6.9214 11.7786C7.12769 11.9849 7.40748 12.1008 7.69922 12.1008H16.0438L14.6215 13.5231Z" fill="#050505"/>
</svg>