<svg width="208" height="50" viewBox="0 0 208 50" fill="none" xmlns="http://www.w3.org/2000/svg">
<g clip-path="url(#clip0_2175_37424)" class="letters">
    <path d="M36.4758 1.46409V7.30289C36.4758 8.10993 35.8197 8.7661 35.0126 8.7661H29.423C28.4826 8.7661 28.5773 9.84684 28.5738 9.91701V13.3733C28.5738 14.1803 27.9177 14.8365 27.1106 14.8365H22.8754C22.0683 14.8365 21.4122 14.1803 21.4122 13.3733V9.13804C21.4122 8.33099 22.0683 7.67483 22.8754 7.67483H26.1492C27.6334 7.67483 27.7106 6.18706 27.7106 5.93442V1.46409C27.7106 0.657041 28.3668 0.000877212 29.1738 0.000877212H35.0126C35.8197 0.000877212 36.4758 0.657041 36.4758 1.46409ZM49.4237 14.8751L45.2937 10.7451C44.7218 10.1732 43.7954 10.1732 43.2235 10.7451L40.0655 13.9031C39.8865 14.0821 38.7812 15.0786 37.732 14.0294L35.4162 11.7136C34.8442 11.1416 33.9179 11.1416 33.3459 11.7136L30.3493 14.7102C29.7774 15.2821 29.7774 16.2085 30.3493 16.7804L33.3459 19.777C33.9179 20.349 34.8442 20.349 35.4162 19.777L37.8548 17.3383H37.8584C37.9075 17.2857 38.6093 16.4541 39.2724 17.1208L43.2235 21.0718C43.7954 21.6437 44.7218 21.6437 45.2937 21.0718L49.4237 16.9418C49.9956 16.3699 49.9956 15.4435 49.4237 14.8716V14.8751ZM34.9635 49.571L39.0935 45.4411C39.6654 44.8691 39.6654 43.9428 39.0935 43.3708L35.9355 40.2128C35.7565 40.0339 34.76 38.9286 35.8092 37.8794L38.125 35.5635C38.697 34.9916 38.697 34.0652 38.125 33.4933L35.1284 30.4967C34.5565 29.9247 33.6301 29.9247 33.0582 30.4967L30.0616 33.4933C29.4896 34.0652 29.4896 34.9916 30.0616 35.5635L32.5003 38.0022H32.5038C32.5529 38.0548 33.381 38.7566 32.7178 39.4198L28.7668 43.3708C28.1949 43.9428 28.1949 44.8691 28.7668 45.4411L32.8968 49.571C33.4687 50.143 34.3951 50.143 34.967 49.571H34.9635ZM49.8518 35.1039V29.2651C49.8518 28.458 49.1956 27.8019 48.3885 27.8019H43.9217C43.6691 27.8019 42.1813 27.7247 42.1813 26.2404V22.9666C42.1813 22.1595 41.5252 21.5034 40.7181 21.5034H36.4829C35.6758 21.5034 35.0197 22.1595 35.0197 22.9666V27.2018C35.0197 28.0089 35.6758 28.665 36.4829 28.665H39.9321H39.9391C40.0093 28.665 41.09 28.5738 41.09 29.5142V35.1039C41.09 35.9109 41.7462 36.5671 42.5533 36.5671H48.3921C49.1991 36.5671 49.8553 35.9109 49.8553 35.1039H49.8518ZM14.84 49.8553H20.6788C21.4858 49.8553 22.142 49.1991 22.142 48.392V43.9252C22.142 43.6726 22.2192 42.1848 23.7035 42.1848H26.9773C27.7843 42.1848 28.4405 41.5286 28.4405 40.7216V36.4864C28.4405 35.6793 27.7843 35.0232 26.9773 35.0232H22.742C21.935 35.0232 21.2788 35.6793 21.2788 36.4864V39.9426C21.2788 40.0128 21.3701 41.0935 20.4297 41.0935H14.84C14.033 41.0935 13.3768 41.7497 13.3768 42.5568V48.3956C13.3768 49.2026 14.033 49.8588 14.84 49.8588V49.8553ZM0.428963 35.1249L4.55893 39.2549C5.13088 39.8268 6.05723 39.8268 6.62918 39.2549L9.78719 36.0969C9.96614 35.9179 11.0714 34.9214 12.1206 35.9706L14.4365 38.2864C15.0084 38.8584 15.9348 38.8584 16.5067 38.2864L19.5033 35.2898C20.0753 34.7179 20.0753 33.7915 19.5033 33.2196L16.5067 30.223C15.9348 29.651 15.0084 29.651 14.4365 30.223L11.9978 32.6617H11.9943C11.9452 32.7143 11.2434 33.5459 10.5802 32.8792L6.62918 28.9282C6.05723 28.3563 5.13088 28.3563 4.55893 28.9282L0.428963 33.0547C-0.142988 33.6266 -0.142988 34.553 0.428963 35.1249ZM14.8891 0.428962L10.7592 4.55893C10.1872 5.13088 10.1872 6.05723 10.7592 6.62918L13.9172 9.78718C14.0961 9.96614 15.0926 11.0714 14.0435 12.1206L11.7276 14.4365C11.1557 15.0084 11.1557 15.9348 11.7276 16.5067L14.7242 19.5033C15.2962 20.0753 16.2225 20.0753 16.7945 19.5033L19.791 16.5067C20.363 15.9348 20.363 15.0084 19.791 14.4365L17.3524 11.9978H17.3489C17.2997 11.9452 16.4716 11.2434 17.1348 10.5802L21.0858 6.62918C21.6578 6.05723 21.6578 5.13088 21.0858 4.55893L16.9594 0.428962C16.3874 -0.142987 15.4611 -0.142987 14.8891 0.428962ZM0.000877213 14.8961V20.7349C0.000877213 21.542 0.657041 22.1981 1.46409 22.1981H5.93091C6.18355 22.1981 7.67132 22.2753 7.67132 23.7596V27.0334C7.67132 27.8404 8.32749 28.4966 9.13453 28.4966H13.3698C14.1768 28.4966 14.833 27.8404 14.833 27.0334V22.7982C14.833 21.9911 14.1768 21.335 13.3698 21.335H9.92053H9.91351C9.84333 21.335 8.76259 21.4262 8.76259 20.4858V14.8961C8.76259 14.0891 8.10643 13.4329 7.29938 13.4329H1.46409C0.657041 13.4364 0.000877213 14.0891 0.000877213 14.8961Z" fill="url(#paint0_linear_2175_37424)"/>
    <path d="M68.0367 24.9235V12.1511H63.605V10.144H74.5597V12.1511H70.1491V24.9235H68.0367Z" fill="white"/>
    <path d="M78.241 15.0146C79.0972 13.8005 80.2902 13.4461 81.7113 13.4461C85.1606 13.4461 86.6448 15.6006 86.6448 18.8393V24.9237H84.5956V18.8603C84.5956 16.748 84.0518 15.3058 81.6482 15.2637C79.4516 15.2216 78.241 16.7901 78.241 18.7761V24.9237H76.2129V10.2881H78.241V15.0146Z" fill="white"/>
    <path d="M100.883 19.7616H91.307C91.307 21.9793 93.4194 23.3161 95.1107 23.3161C96.5107 23.3161 97.809 22.7091 98.4757 21.4354H100.588C99.7319 23.9021 97.409 25.1373 95.0896 25.1373C92.1842 25.1373 89.2578 23.1723 89.2578 19.2844C89.2578 15.3966 92.1421 13.4526 95.1317 13.4526C97.9318 13.4526 100.693 15.2281 100.921 18.7826C100.963 19.116 100.942 19.4739 100.879 19.7651L100.883 19.7616ZM98.7704 18.0668C98.3739 16.0387 96.7633 15.2457 95.1317 15.2457C93.5001 15.2457 91.8088 16.0597 91.3877 18.0668H98.7669H98.7704Z" fill="white"/>
    <path d="M116.815 21.2252H110.878L109.457 24.9271H107.176L113.05 10.1021H114.597L120.471 24.9271H118.211L116.811 21.2252H116.815ZM111.65 19.2392H116.039L113.843 13.4671L111.646 19.2392H111.65Z" fill="white"/>
    <path d="M124.197 15.0777C125.179 13.7408 126.6 13.425 128 13.425C131.825 13.425 133.811 16.1655 133.811 19.2147C133.811 22.2639 131.909 25.1097 127.958 25.1097C126.558 25.0886 125.011 24.6289 124.193 23.3938V24.9202H122.144V10.2881H124.193V15.0777H124.197ZM127.878 23.2956C130.471 23.3587 131.786 21.2885 131.765 19.2182C131.744 17.2322 130.509 15.2672 128.042 15.2251C126.12 15.204 124.197 16.5409 124.197 19.2603C124.197 21.9797 126.014 23.2535 127.878 23.2956Z" fill="white"/>
    <path d="M138.373 24.9237H136.324V10.2881H138.373V24.9237Z" fill="white"/>
    <path d="M152.571 19.7616H142.995C142.995 21.9793 145.107 23.3161 146.799 23.3161C148.199 23.3161 149.497 22.7091 150.164 21.4354H152.276C151.42 23.9021 149.097 25.1373 146.778 25.1373C143.872 25.1373 140.946 23.1723 140.946 19.2844C140.946 15.3966 143.83 13.4526 146.82 13.4526C149.62 13.4526 152.381 15.2281 152.609 18.7826C152.651 19.116 152.63 19.4739 152.567 19.7651L152.571 19.7616ZM150.458 18.0668C150.062 16.0387 148.451 15.2457 146.82 15.2457C145.188 15.2457 143.497 16.0597 143.076 18.0668H150.455H150.458Z" fill="white"/>
    <path d="M68.0367 45.5471V32.7712H63.605V30.7642H74.5597V32.7712H70.1491V45.5471H68.0367Z" fill="white"/>
    <path d="M87.3349 40.3822H77.7592C77.7592 42.5999 79.8715 43.9367 81.5628 43.9367C82.9628 43.9367 84.2611 43.3297 84.9278 42.056H87.0402C86.184 44.5227 83.8611 45.7579 81.5417 45.7579C78.6364 45.7579 75.71 43.7929 75.71 39.905C75.71 36.0172 78.5943 34.0732 81.5839 34.0732C84.384 34.0732 87.1455 35.8487 87.3735 39.4033C87.4156 39.7366 87.3946 40.0945 87.3314 40.3857L87.3349 40.3822ZM85.2226 38.6874C84.8261 36.6593 83.2155 35.8663 81.5839 35.8663C79.9522 35.8663 78.2609 36.6804 77.8399 38.6874H85.2191H85.2226Z" fill="white"/>
    <path d="M101.153 41.2386C100.588 44.2281 98.0373 45.6913 95.4863 45.7124C92.5388 45.7545 89.5703 43.8106 89.5703 39.8806C89.5703 35.9507 92.4967 34.0488 95.4442 34.0488C98.0162 34.0488 100.588 35.5331 101.153 38.5437H99.0408C98.539 36.7472 97.0127 35.8664 95.4653 35.8664C93.5634 35.8664 91.6195 37.1823 91.6195 39.8806C91.6195 42.579 93.5424 43.9158 95.4863 43.9158C97.0337 43.9158 98.539 43.0386 99.0408 41.2386H101.153Z" fill="white"/>
    <path d="M105.733 35.6347C106.589 34.4206 107.782 34.0662 109.203 34.0662C112.652 34.0662 114.137 36.2207 114.137 39.4594V45.5438H112.087V39.4804C112.087 37.3681 111.543 35.9259 109.14 35.8838C106.943 35.8417 105.733 37.4102 105.733 39.3962V45.5438H103.705V30.9082H105.733V35.6347Z" fill="white"/>
    <path d="M119.369 34.2343V35.6344C120.204 34.4203 121.418 34.0659 122.839 34.0659C126.288 34.0659 127.751 36.2204 127.751 39.4591V45.5435H125.723V39.4801C125.723 37.3678 125.179 35.9256 122.776 35.8835C120.579 35.8414 119.369 37.4099 119.369 39.3959V45.5435H117.319V34.2308H119.369V34.2343Z" fill="white"/>
    <path d="M136.449 45.7545C133.417 45.7545 130.386 43.7895 130.386 39.9017C130.386 36.0138 133.438 34.0488 136.512 34.0488C139.586 34.0488 142.576 36.0138 142.576 39.9017C142.576 43.7895 139.523 45.7545 136.449 45.7545ZM136.449 43.9158C138.498 43.9369 140.547 42.5789 140.547 39.9017C140.547 37.2244 138.519 35.8664 136.512 35.8664C134.505 35.8664 132.435 37.2033 132.435 39.9017C132.435 42.6 134.442 43.8948 136.449 43.9158Z" fill="white"/>
    <path d="M147.425 45.5472H145.375V30.9116H147.425V45.5472Z" fill="white"/>
    <path d="M156.144 45.7545C153.113 45.7545 150.081 43.7895 150.081 39.9017C150.081 36.0138 153.134 34.0488 156.208 34.0488C159.281 34.0488 162.271 36.0138 162.271 39.9017C162.271 43.7895 159.218 45.7545 156.144 45.7545ZM156.144 43.9158C158.194 43.9369 160.243 42.5789 160.243 39.9017C160.243 37.2244 158.215 35.8664 156.208 35.8664C154.2 35.8664 152.13 37.2033 152.13 39.9017C152.13 42.6 154.137 43.8948 156.144 43.9158Z" fill="white"/>
    <path d="M170.592 50C167.749 50 165.093 48.8701 165.093 46.2981H167.121C167.121 47.7403 169.086 48.1999 170.57 48.1789C172.367 48.1578 174.357 47.3016 174.357 45.1261V43.9331C173.374 45.2279 171.953 45.5226 170.553 45.5226C166.749 45.5226 164.553 42.9927 164.553 39.9189C164.553 36.8451 166.644 34.024 170.595 34.045C171.995 34.045 173.543 34.5258 174.381 35.7398V34.2345H176.409V45.1261C176.409 48.6385 173.399 49.9965 170.595 49.9965L170.592 50ZM174.357 39.6101C174.357 37.6031 173.121 35.9083 170.676 35.8451C168.083 35.7819 166.598 37.8732 166.598 39.9224C166.619 41.9085 168.041 43.7261 170.528 43.7261C173.016 43.7261 174.353 41.6979 174.353 39.6066L174.357 39.6101Z" fill="white"/>
    <path d="M182.009 31.3294C182.009 32.9189 179.458 32.9189 179.458 31.3294C179.458 29.7398 182.009 29.7398 182.009 31.3294ZM181.76 34.1084H179.711V45.5439H181.76V34.1084Z" fill="white"/>
    <path d="M196.265 40.3822H186.689C186.689 42.5999 188.801 43.9367 190.492 43.9367C191.893 43.9367 193.191 43.3297 193.858 42.056H195.97C195.114 44.5227 192.791 45.7579 190.471 45.7579C187.566 45.7579 184.64 43.7929 184.64 39.905C184.64 36.0172 187.524 34.0732 190.514 34.0732C193.314 34.0732 196.075 35.8487 196.303 39.4033C196.345 39.7366 196.324 40.0945 196.261 40.3857L196.265 40.3822ZM194.152 38.6874C193.756 36.6593 192.145 35.8663 190.514 35.8663C188.882 35.8663 187.191 36.6804 186.77 38.6874H194.149H194.152Z" fill="white"/>
    <path d="M203.063 38.94C205.197 39.0874 207.621 39.7541 207.621 42.3261C207.621 44.8981 205.028 45.7333 202.895 45.7333C200.554 45.7333 198.379 44.7508 198.231 42.0735H200.281C200.365 43.3472 201.575 43.9753 203 43.9543C204.025 43.9332 205.572 43.5999 205.572 42.3016C205.593 41.0278 203.818 40.8173 202.832 40.7752C200.803 40.691 198.4 40.0629 198.4 37.533C198.4 35.0031 200.719 33.9995 202.916 33.9995C205.112 33.9995 207.141 34.9609 207.284 37.3224H205.256C205.151 36.3189 204.084 35.8382 202.853 35.8382C201.621 35.8382 200.428 36.3189 200.428 37.4909C200.428 38.912 202.06 38.8699 203.063 38.933V38.94Z" fill="white"/>
</g>
<linearGradient id="paint0_linear_2175_37424" x1="0.937753" y1="34.1951" x2="47.4868" y2="16.3523" gradientUnits="userSpaceOnUse">
    <stop stop-color="#E2FF14"/>
    <stop offset="1" stop-color="#00ADEE"/>
</linearGradient>
</svg>
