<svg xmlns="http://www.w3.org/2000/svg" width="25" height="24" viewBox="0 0 25 24" fill="none">
    <path d="M12.5 17C13.0523 17 13.5 16.5523 13.5 16C13.5 15.4477 13.0523 15 12.5 15C11.9477 15 11.5 15.4477 11.5 16C11.5 16.5523 11.9477 17 12.5 17Z" fill="white" stroke="white" stroke-width="1.5" stroke-linecap="round" stroke-linejoin="round"/>
    <path d="M21.5 7.35309V16.647C21.5 16.8649 21.3819 17.0656 21.1914 17.1715L12.7914 21.8381C12.6102 21.9388 12.3898 21.9388 12.2086 21.8381L3.80863 17.1715C3.61816 17.0656 3.50002 16.8649 3.50002 16.647L3.5 7.35309C3.5 7.13519 3.61814 6.93442 3.80862 6.8286L12.2086 2.16193C12.3898 2.06126 12.6102 2.06126 12.7914 2.16193L21.1914 6.8286C21.3818 6.93442 21.5 7.13519 21.5 7.35309Z" stroke="white" stroke-width="1.5" stroke-linecap="round" stroke-linejoin="round"/>
    <path d="M21 16.7223L12.7914 12.1619C12.6102 12.0613 12.3898 12.0613 12.2086 12.1619L4 16.7223" stroke="white" stroke-width="1.5" stroke-linecap="round" stroke-linejoin="round"/>
    <path d="M4.02832 7.29363L12.2085 11.8382C12.3897 11.9388 12.6101 11.9388 12.7913 11.8382L20.9999 7.27783" stroke="white" stroke-width="1.5" stroke-linecap="round" stroke-linejoin="round"/>
    <path d="M12.5 3V12" stroke="white" stroke-width="1.5" stroke-linecap="round" stroke-linejoin="round"/>
    <path d="M12.5 19.5V22" stroke="white" stroke-width="1.5" stroke-linecap="round" stroke-linejoin="round"/>
</svg>