<svg xmlns="http://www.w3.org/2000/svg" width="25" height="24" viewBox="0 0 25 24" fill="none">
    <path d="M21.5 3.6V20.4C21.5 20.7314 21.2314 21 20.9 21H4.1C3.76863 21 3.5 20.7314 3.5 20.4V3.6C3.5 3.26863 3.76863 3 4.1 3H20.9C21.2314 3 21.5 3.26863 21.5 3.6Z" stroke="white" stroke-width="1.5" stroke-linecap="round" stroke-linejoin="round"/>
    <path d="M12.5 18C15.8137 18 18.5 15.3137 18.5 12C18.5 8.68629 15.8137 6 12.5 6C9.18629 6 6.5 8.68629 6.5 12C6.5 15.3137 9.18629 18 12.5 18Z" stroke="white" stroke-width="1.5" stroke-linecap="round" stroke-linejoin="round"/>
    <path d="M16 7.5L12.5 12" stroke="white" stroke-width="1.5" stroke-linecap="round" stroke-linejoin="round"/>
</svg>