<svg xmlns="http://www.w3.org/2000/svg" width="25" height="24" viewBox="0 0 25 24" fill="none">
<g clip-path="url(#clip0_2143_2324)">
    <path d="M7.5 18V17C7.5 14.2386 9.73858 12 12.5 12C15.2614 12 17.5 14.2386 17.5 17V18" stroke="white" stroke-width="1.5" stroke-linecap="round" stroke-linejoin="round"/>
    <path d="M1.5 18V17C1.5 15.3431 2.84315 14 4.5 14" stroke="white" stroke-width="1.5" stroke-linecap="round" stroke-linejoin="round"/>
    <path d="M23.5 18V17C23.5 15.3431 22.1569 14 20.5 14" stroke="white" stroke-width="1.5" stroke-linecap="round" stroke-linejoin="round"/>
    <path d="M12.5 12C14.1569 12 15.5 10.6569 15.5 9C15.5 7.34315 14.1569 6 12.5 6C10.8431 6 9.5 7.34315 9.5 9C9.5 10.6569 10.8431 12 12.5 12Z" stroke="white" stroke-width="1.5" stroke-linecap="round" stroke-linejoin="round"/>
    <path d="M4.5 14C5.60457 14 6.5 13.1046 6.5 12C6.5 10.8954 5.60457 10 4.5 10C3.39543 10 2.5 10.8954 2.5 12C2.5 13.1046 3.39543 14 4.5 14Z" stroke="white" stroke-width="1.5" stroke-linecap="round" stroke-linejoin="round"/>
    <path d="M20.5 14C21.6046 14 22.5 13.1046 22.5 12C22.5 10.8954 21.6046 10 20.5 10C19.3954 10 18.5 10.8954 18.5 12C18.5 13.1046 19.3954 14 20.5 14Z" stroke="white" stroke-width="1.5" stroke-linecap="round" stroke-linejoin="round"/>
</g>
</svg>