<svg xmlns="http://www.w3.org/2000/svg" width="143" height="143" viewBox="0 0 143 143" fill="none">
    <path d="M64.8225 99.8C62.5225 99.8 60.6525 101.67 60.6525 103.97V113.82C60.6525 114.01 60.9125 117.1 58.2325 117.1H42.3025C40.0025 117.1 38.1325 118.97 38.1325 121.27V137.91C38.1325 140.21 40.0025 142.08 42.3025 142.08H58.9425C61.2425 142.08 63.1125 140.21 63.1125 137.91V125.18C63.1125 124.46 63.3325 120.22 67.5625 120.22H76.8925C79.1925 120.22 81.0625 118.35 81.0625 116.05V103.98C81.0625 101.68 79.1925 99.81 76.8925 99.81H64.8225V99.8ZM94.2225 86.92L85.6825 95.46C84.0525 97.09 84.0525 99.73 85.6825 101.36L92.6325 108.31H92.6425C92.7825 108.46 95.1425 110.46 93.2525 112.35L81.9825 123.62C80.3525 125.25 80.3525 127.89 81.9825 129.52L93.7525 141.29C95.3825 142.92 98.0225 142.92 99.6525 141.29L111.423 129.52C113.052 127.89 113.052 125.25 111.423 123.62L102.423 114.62C101.912 114.11 99.0725 110.96 102.062 107.97L108.662 101.37C110.292 99.74 110.292 97.1 108.662 95.47L100.122 86.93C99.3125 86.12 98.2425 85.71 97.1725 85.71C96.1025 85.71 95.0425 86.12 94.2225 86.93M12.9925 82.45L1.2225 94.22C-0.4075 95.85 -0.4075 98.49 1.2225 100.12L12.9925 111.89C14.6225 113.52 17.2625 113.52 18.8925 111.89L27.8925 102.89C28.4025 102.38 31.5525 99.54 34.5425 102.53L41.1425 109.13C42.7725 110.76 45.4125 110.76 47.0425 109.13L55.5825 100.59C57.2125 98.96 57.2125 96.32 55.5825 94.69L47.0425 86.15C45.4125 84.52 42.7725 84.52 41.1425 86.15L34.1925 93.1H34.1825C34.0425 93.25 32.0425 95.62 30.1525 93.72L18.8925 82.45C18.0825 81.64 17.0125 81.23 15.9425 81.23C14.8725 81.23 13.8125 81.64 12.9925 82.45ZM103.972 61.29C101.672 61.29 99.8025 63.16 99.8025 65.46V77.54C99.8025 79.84 101.672 81.71 103.972 81.71H113.822C113.822 81.71 113.872 81.71 113.923 81.71C114.503 81.69 117.092 81.68 117.092 84.13V100.06C117.092 102.36 118.962 104.23 121.262 104.23H137.902C140.202 104.23 142.072 102.36 142.072 100.06V83.42C142.072 81.12 140.202 79.25 137.902 79.25H125.173C124.452 79.25 120.212 79.03 120.212 74.8V65.47C120.212 63.17 118.342 61.3 116.042 61.3H103.972V61.29ZM4.1825 38.28C1.8825 38.28 0.0125 40.15 0.0125 42.46V59.1C0.0125 61.4 1.8825 63.27 4.1825 63.27H16.9125C17.6325 63.27 21.8725 63.49 21.8725 67.72V77.05C21.8725 79.35 23.7425 81.22 26.0425 81.22H38.1125C40.4125 81.22 42.2825 79.35 42.2825 77.05V64.97C42.2825 62.67 40.4125 60.8 38.1125 60.8H28.2625C28.2625 60.8 28.2125 60.8 28.1625 60.8C27.5825 60.82 24.9825 60.83 24.9825 58.38V42.45C24.9825 40.15 23.1125 38.28 20.8125 38.28H4.1825ZM123.202 30.62L114.202 39.62C113.692 40.13 110.542 42.97 107.552 39.98L100.952 33.38C99.3225 31.75 96.6825 31.75 95.0525 33.38L86.5125 41.92C84.8825 43.55 84.8825 46.19 86.5125 47.82L95.0525 56.36C96.6825 57.99 99.3225 57.99 100.952 56.36L107.902 49.41H107.912C108.052 49.26 110.052 46.89 111.942 48.79L123.202 60.06C124.832 61.69 127.472 61.69 129.102 60.06L140.872 48.29C142.503 46.66 142.503 44.02 140.872 42.39L129.102 30.62C128.292 29.81 127.222 29.4 126.152 29.4C125.082 29.4 124.022 29.81 123.202 30.62ZM83.1525 0C80.8525 0 78.9825 1.87 78.9825 4.17V16.9C78.9825 17.62 78.7625 21.86 74.5325 21.86H65.2025C62.9025 21.86 61.0325 23.73 61.0325 26.03V38.11C61.0325 40.41 62.9025 42.28 65.2025 42.28H77.2825C79.5825 42.28 81.4525 40.41 81.4525 38.11V28.27C81.4525 28.07 81.1925 24.99 83.8725 24.99H99.8025C102.103 24.99 103.972 23.12 103.972 20.82V4.17C103.972 1.87 102.103 0 99.8025 0H83.1625H83.1525ZM42.4425 1.22L30.6825 12.99C29.0525 14.62 29.0525 17.26 30.6825 18.89L39.6825 27.89C40.1925 28.4 43.0325 31.55 40.0425 34.54L33.4425 41.14C31.8125 42.77 31.8125 45.41 33.4425 47.04L41.9825 55.58C43.6125 57.21 46.2525 57.21 47.8825 55.58L56.4225 47.04C58.0525 45.41 58.0525 42.77 56.4225 41.14L49.4725 34.19H49.4625C49.3225 34.04 46.9625 32.04 48.8525 30.15L60.1125 18.88C61.7425 17.25 61.7425 14.61 60.1125 12.98L48.3425 1.22C47.5325 0.41 46.4625 0 45.3925 0C44.3225 0 43.2625 0.41 42.4425 1.22Z" fill="url(#paint0_linear_262_478)"/>
    <linearGradient id="paint0_linear_262_478" x1="142" y1="6.21051e-06" x2="-2.65841e-06" y2="143" gradientUnits="userSpaceOnUse">
        <stop stop-color="#00ADEE"/>
        <stop offset="1" stop-color="#E2FF14"/>
    </linearGradient>
</svg>